<svg xmlns="http://www.w3.org/2000/svg" viewBox="0 0 760 170" role="img" aria-labelledby="title desc">
  <title id="title">Machados Consulting</title>
  <desc id="desc">Logotipo com escudo azul, letra M e assinatura Machados Consulting.</desc>
  <defs>
    <linearGradient id="shield" x1="0" x2="1" y1="0" y2="1">
      <stop offset="0" stop-color="#112b63"/>
      <stop offset="1" stop-color="#071f42"/>
    </linearGradient>
  </defs>
  <rect width="760" height="170" fill="none"/>
  <path d="M22 18h130c9 0 16 7 16 16v72c0 34-29 54-81 77C35 160 6 140 6 106V34c0-9 7-16 16-16Z" fill="url(#shield)"/>
  <path d="M24 30h126c3 0 6 3 6 6v68c0 25-21 42-69 64-48-22-69-39-69-64V36c0-3 3-6 6-6Z" fill="none" stroke="#244a91" stroke-width="6"/>
  <text x="42" y="112" fill="#ffffff" font-family="Georgia, 'Times New Roman', serif" font-size="86" font-weight="700">M</text>
  <text x="210" y="76" fill="#102b63" font-family="Arial Black, Arial, Helvetica, sans-serif" font-size="52" font-weight="900" letter-spacing="1">MACHADOS</text>
  <text x="210" y="125" fill="#102b63" font-family="Arial Black, Arial, Helvetica, sans-serif" font-size="52" font-weight="900" letter-spacing="1">CONSULTING</text>
  <text x="214" y="155" fill="#7a8398" font-family="Arial, Helvetica, sans-serif" font-size="21">Contabilidade simplificada | Assessoria Jur&#237;dica</text>
</svg>
